{
  "accessors": [
    {
      "bufferView": 2,
      "componentType": 5126,
      "count": 3295,
      "max": [
        0.94317573308944702,
        11.191534996032715,
        4.2129335403442383
      ],
      "min": [
        -1.4562841653823853,
        -9.1787919998168945,
        -4.1791915893554688
      ],
      "type": "VEC3"
    },
    {
      "bufferView": 2,
      "byteOffset": 39540,
      "componentType": 5126,
      "count": 3295,
      "max": [
        0.99998223781585693,
        0.99984240531921387,
        0.99983572959899902
      ],
      "min": [
        -0.99998462200164795,
        -0.9995797872543335,
        -0.9997025728225708
      ],
      "type": "VEC3"
    },
    {
      "bufferView": 3,
      "componentType": 5126,
      "count": 3295,
      "max": [
        0.97201752662658691,
        0.99925106763839722,
        0.99979561567306519,
        1
      ],
      "min": [
        -0.99997174739837646,
        -0.99979841709136963,
        -0.99960887432098389,
        -1
      ],
      "type": "VEC4"
    },
    {
      "bufferView": 1,
      "componentType": 5126,
      "count": 3295,
      "max": [
        0.98391562700271606,
        0.98482871055603027
      ],
      "min": [
        0.019604552537202835,
        0.022425359115004539
      ],
      "type": "VEC2"
    },
    {
      "bufferView": 0,
      "componentType": 5125,
      "count": 12063,
      "max": [
        3294
      ],
      "min": [
        0
      ],
      "type": "SCALAR"
    }
  ],
  "asset": {
    "extras": {
      "author": "feryzapata (https://sketchfab.com/feryzapata)",
      "license": "CC-BY-4.0 (http://creativecommons.org/licenses/by/4.0/)",
      "source": "https://sketchfab.com/3d-models/moon-stick-sailor-moon-acb3022d18ab49d998da78983f60dd12",
      "title": "Moon Stick - Sailor Moon"
    },
    "generator": "Sketchfab-6.83.0",
    "version": "2.0"
  },
  "bufferViews": [
    {
      "buffer": 0,
      "byteLength": 48252,
      "byteOffset": 0,
      "name": "floatBufferViews",
      "target": 34963
    },
    {
      "buffer": 0,
      "byteLength": 26360,
      "byteOffset": 48252,
      "byteStride": 8,
      "name": "floatBufferViews",
      "target": 34962
    },
    {
      "buffer": 0,
      "byteLength": 79080,
      "byteOffset": 74612,
      "byteStride": 12,
      "name": "floatBufferViews",
      "target": 34962
    },
    {
      "buffer": 0,
      "byteLength": 52720,
      "byteOffset": 153692,
      "byteStride": 16,
      "name": "floatBufferViews",
      "target": 34962
    }
  ],
  "buffers": [
    {
      "byteLength": 206412,
      "uri": "scene.bin"
    }
  ],
  "images": [
    {
      "uri": "textures/Scene_-_Root_baseColor.png"
    },
    {
      "uri": "textures/Scene_-_Root_metallicRoughness.png"
    },
    {
      "uri": "textures/Scene_-_Root_emissive.png"
    },
    {
      "uri": "textures/Scene_-_Root_normal.png"
    }
  ],
  "materials": [
    {
      "alphaMode": "BLEND",
      "doubleSided": true,
      "emissiveFactor": [
        1,
        1,
        1
      ],
      "emissiveTexture": {
        "index": 2,
        "texCoord": 0
      },
      "name": "Scene_-_Root",
      "normalTexture": {
        "index": 3,
        "scale": 1,
        "texCoord": 0
      },
      "pbrMetallicRoughness": {
        "baseColorFactor": [
          1,
          1,
          1,
          1
        ],
        "baseColorTexture": {
          "index": 0,
          "texCoord": 0
        },
        "metallicFactor": 1,
        "metallicRoughnessTexture": {
          "index": 1,
          "texCoord": 0
        },
        "roughnessFactor": 1
      }
    }
  ],
  "meshes": [
    {
      "primitives": [
        {
          "attributes": {
            "NORMAL": 1,
            "POSITION": 0,
            "TANGENT": 2,
            "TEXCOORD_0": 3
          },
          "indices": 4,
          "material": 0,
          "mode": 4
        }
      ]
    }
  ],
  "nodes": [
    {
      "children": [
        1
      ],
      "name": "RootNode (gltf orientation matrix)",
      "rotation": [
        -0.70710678118654746,
        -0,
        -0,
        0.70710678118654757
      ]
    },
    {
      "children": [
        2
      ],
      "matrix": [
        4.4408920985006262e-16,
        -1,
        2.7755575615628914e-16,
        0,
        0.82635360956192017,
        5.5511151231257827e-16,
        0.56315153837203979,
        0,
        -0.56315153837203979,
        1.6653345369377348e-16,
        0.82635360956192017,
        0,
        -2.1104137897491455,
        1.0845242738723755,
        -0.98515117168426514,
        1
      ],
      "name": "RootNode (model correction matrix)"
    },
    {
      "children": [
        3
      ],
      "name": "root"
    },
    {
      "children": [
        4
      ],
      "matrix": [
        1,
        0,
        0,
        0,
        0,
        2.2204460492503131e-16,
        1,
        0,
        0,
        -1,
        2.2204460492503131e-16,
        0,
        0,
        0,
        0,
        1
      ],
      "name": "GLTF_SceneRootNode"
    },
    {
      "children": [
        5
      ],
      "matrix": [
        1,
        0,
        0,
        0,
        0,
        1,
        0,
        0,
        0,
        0,
        1,
        0,
        -0.88377481698989868,
        0.53570699691772461,
        -2.2417211532592773,
        1
      ],
      "name": "RetopoFlow_2"
    },
    {
      "mesh": 0,
      "name": ""
    }
  ],
  "samplers": [
    {
      "magFilter": 9729,
      "minFilter": 9987,
      "wrapS": 10497,
      "wrapT": 10497
    }
  ],
  "scene": 0,
  "scenes": [
    {
      "name": "OSG_Scene",
      "nodes": [
        0
      ]
    }
  ],
  "textures": [
    {
      "sampler": 0,
      "source": 0
    },
    {
      "sampler": 0,
      "source": 1
    },
    {
      "sampler": 0,
      "source": 2
    },
    {
      "sampler": 0,
      "source": 3
    }
  ]
}

